<?xml version="1.0" encoding="utf-8" ?>
<svg xmlns="http://www.w3.org/2000/svg" xmlns:xlink="http://www.w3.org/1999/xlink" width="470" height="438">
	<path transform="matrix(2.17593 0 0 2.1791 0.000244141 3.8147e-06)" d="M107.768 20.0369C109.767 19.8492 112.054 20.7188 113.745 21.7195C120.309 25.6023 125.769 37.12 127.635 44.419C128.702 41.2177 130.733 37.7727 132.75 35.0893C134.899 32.2305 138.107 29.1897 141.821 28.7104C144.301 28.3905 146.69 29.4785 148.611 30.9617C159.734 39.5507 164.03 64.6222 165.661 77.5214C168.872 102.917 168.374 154.711 152.292 175.313C150.088 178.137 147.123 180.755 143.424 181.19C140.296 181.558 137.989 180.036 135.65 178.203C131.943 175.08 129.146 169.588 127.49 165.06C126.384 169.689 124.626 174.137 122.27 178.271C119.716 182.709 115.498 188.208 110.218 189.515C107.903 190.089 105.282 189.023 103.327 187.835C93.515 181.869 89.2649 166.53 86.6923 156.058C78.8563 124.161 78.8821 81.3488 87.7776 49.6952C89.6997 42.8557 92.0593 35.8359 95.765 29.7309C98.7487 24.8155 102.088 21.423 107.768 20.0369ZM117.209 166.9C121.244 166.821 123.527 164.575 126.39 162.031C115.523 135.37 116.317 89.0289 122.447 61.165C123.462 56.5494 124.863 52.0982 126.403 47.6354C124.062 45.1932 121.483 42.7892 117.88 42.7216C117.355 42.7117 116.823 42.759 116.3 42.81C111.019 45.1985 107.886 51.3138 105.941 56.4793C96.0637 82.707 95.442 129.991 107.153 155.809C109.174 160.264 112.02 164.953 116.811 166.757C116.943 166.806 117.076 166.854 117.209 166.9ZM151.158 147.398C155.835 144.958 158.005 139.86 159.509 135.066C164.865 117.988 165.216 84.2307 156.804 68.1162C155.645 65.8972 153.85 63.3599 151.321 62.6165C150.687 62.4301 150.056 62.4613 149.405 62.5106C144.81 64.9308 142.85 70.1602 141.394 74.8618C136.123 91.8834 135.403 125.696 143.89 141.755C145.004 143.863 146.788 146.589 149.207 147.304C149.879 147.502 150.471 147.498 151.158 147.398Z"/>
	<path transform="matrix(2.17593 0 0 2.1791 0.000244141 3.8147e-06)" d="M85.4028 28.7245L85.9508 28.8396C86.3353 29.9815 82.0711 33.3474 81.1485 34.257C68.5374 46.6914 61.0367 67.6365 58.3047 84.7731C53.8944 112.437 58.3305 143.998 75.0811 167.064C76.394 168.872 84.5801 178.857 86.2004 179.114L85.9457 179.53L86.2583 179.522L86.49 179.916L86.3019 180.003C82.8572 179.715 74.469 174.244 71.2595 172.26C58.2061 164.001 47.6297 152.366 40.651 138.585C31.5951 120.578 30.0696 99.709 36.4106 80.576C42.7758 61.1456 56.0492 45.8612 73.3338 35.1964C77.2147 32.8018 81.3374 30.7848 85.4028 28.7245Z"/>
	<path transform="matrix(2.17593 0 0 2.1791 0.000244141 3.8147e-06)" d="M179.907 80.9035C180.09 80.9006 180.269 80.9043 180.451 80.9168C181.735 81.0049 182.664 81.6679 183.49 82.6233C188.366 88.2613 188.382 102.017 187.889 109.214C187.488 115.071 186.572 122.911 181.933 126.953C181.684 127.008 181.417 127.037 181.162 127.042C180.272 127.058 179.373 126.356 178.777 125.757C174.294 121.249 173.932 110.232 173.941 104.069C173.953 96.5747 174.325 86.4676 179.907 80.9035Z"/>
</svg>
